<?xml version="1.0" encoding="UTF-8"?>
<svg width="18px" height="18px" viewBox="0 0 18 18" version="1.1" xmlns="http://www.w3.org/2000/svg" xmlns:xlink="http://www.w3.org/1999/xlink" xmlns:sketch="http://www.bohemiancoding.com/sketch/ns">
    <title>icon-help</title>
    <description>Created with Sketch (http://www.bohemiancoding.com/sketch)</description>
    <defs></defs>
    <g id="Page-1" stroke="none" stroke-width="1" fill="none" fill-rule="evenodd" sketch:type="MSPage">
        <path d="M9,0 C4.03248058,0 0,4.02889806 0,9 C0,13.9690485 4.0303835,18 9,18 C13.9669951,18 18,13.9715388 18,9 C18,4.03278641 13.9712767,0 9,0 L9,0 Z M12.2746456,12.2746456 C10.4664757,14.0828592 7.53645146,14.0859175 5.72535437,12.2746456 C3.91683495,10.4661262 3.91482524,7.5358835 5.72535437,5.72535437 C7.53479126,3.91591748 10.4647718,3.9153932 12.2746456,5.72535437 C14.0829903,7.53356796 14.0854369,10.4640728 12.2746456,12.2746456 L12.2746456,12.2746456 Z M12.5064175,1.90813107 L11.4224417,3.8111068 C9.89698544,3.09713592 8.10454369,3.09656796 6.57751456,3.81115049 L5.49353883,1.90813107 C7.65305825,0.838004854 10.2740243,0.801830097 12.5064175,1.90813107 L12.5064175,1.90813107 Z M1.90288835,5.5043301 L3.80608252,6.58843689 C3.09451456,8.11725728 3.08708738,9.9437767 3.85317961,11.5099078 L1.95168932,12.5930097 C0.83892233,10.4158835 0.788941748,7.76092718 1.90288835,5.5043301 L1.90288835,5.5043301 Z M5.54941748,16.1191311 L6.63413592,14.2148447 C8.12809223,14.8940825 9.86989806,14.8949126 11.3659078,14.214801 L12.4506262,16.1191311 C10.3119029,17.1578883 7.7424466,17.1842767 5.54941748,16.1191311 L5.54941748,16.1191311 Z M14.1468641,11.5099515 C14.9115583,9.94648544 14.9067961,8.12014078 14.1939175,6.58848058 L16.0971117,5.50437379 C17.1746214,7.68713592 17.1983447,10.342966 16.0483107,12.5930971 L14.1468641,11.5099515 L14.1468641,11.5099515 Z" id="lifebuoy-icon" fill="#EEEEEE" sketch:type="MSShapeGroup"></path>
    </g>
</svg>