<?xml version="1.0" encoding="UTF-8"?>
<svg width="18px" height="18px" viewBox="0 0 18 18" version="1.1" xmlns="http://www.w3.org/2000/svg" xmlns:xlink="http://www.w3.org/1999/xlink" xmlns:sketch="http://www.bohemiancoding.com/sketch/ns">
    <title>icon-settings</title>
    <description>Created with Sketch (http://www.bohemiancoding.com/sketch)</description>
    <defs></defs>
    <g id="Page-1" stroke="none" stroke-width="1" fill="none" fill-rule="evenodd" sketch:type="MSPage">
        <g id="settings" sketch:type="MSLayerGroup" fill="#EEEEEE">
            <g id="Group" sketch:type="MSShapeGroup">
                <path d="M17.0786538,7.11050762 L15.8152395,6.89617715 C15.6836338,6.47127637 15.5144266,6.06141634 15.3076177,5.67035722 L16.0521297,4.6287863 C16.3679833,4.1850846 16.3191012,3.57969501 15.9318045,3.19615626 L14.8112764,2.07562147 C14.6007073,1.86505118 14.3224554,1.74848548 14.0254026,1.74848548 C13.7922726,1.74848548 13.5704231,1.81992897 13.382415,1.95529559 L12.3370901,2.69981199 C11.9309926,2.48548151 11.5060944,2.30875287 11.0661555,2.17714644 L10.8555864,0.928765406 C10.7653425,0.391059118 10.3028427,0 9.75761924,0 L8.17459122,0 C7.6293678,0 7.16686793,0.391059118 7.07662405,0.928765406 L6.85853468,2.20722791 C6.43739658,2.33883434 6.02753897,2.5118028 5.63648217,2.72237309 L4.60243774,1.9778567 C4.41442967,1.84249008 4.18881997,1.77104658 3.95568996,1.77104658 C3.65863719,1.77104658 3.37662508,1.88761228 3.16981619,2.09818258 L2.04552789,3.21871736 C1.66199141,3.60225611 1.60934915,4.20764571 1.92520272,4.6513474 L2.67723503,5.70795906 C2.47042614,6.10277836 2.30497903,6.5126384 2.17713354,6.93753917 L0.928759904,7.14810946 C0.391056802,7.23835388 0,7.70085649 0,8.24608314 L0,9.82912053 C0,10.3743472 0.391056802,10.8368498 0.928759904,10.9270942 L2.20721483,11.1451849 C2.33882049,11.5663255 2.51178792,11.9761855 2.72235697,12.3672446 L1.98160514,13.397535 C1.66575157,13.8412367 1.71463367,14.4466263 2.10193031,14.830165 L3.22245845,15.9506998 C3.4330275,16.1612701 3.71127946,16.2778358 4.00833222,16.2778358 C4.24146223,16.2778358 4.46331177,16.2063923 4.65131984,16.0710257 L5.70792524,15.3189889 C6.08770156,15.5182787 6.48627868,15.6799666 6.89613629,15.8078128 L7.10670534,17.0712346 C7.19694922,17.6089409 7.65944909,18 8.20467251,18 L9.79146069,18 C10.3366841,18 10.799184,17.6089409 10.8894279,17.0712346 L11.1037571,15.8078128 C11.5286553,15.6762064 11.9385129,15.5069981 12.3295697,15.300188 L13.3711345,16.0447044 C13.5591426,16.180071 13.7847523,16.2515145 14.0178823,16.2515145 L14.0178823,16.2515145 C14.314935,16.2515145 14.593187,16.1349488 14.803756,15.9243785 L15.9242842,14.8038437 C16.3078207,14.420305 16.3604629,13.8149154 16.0446094,13.3712137 L15.3000974,12.3258826 C15.5069063,11.9310633 15.6798737,11.5212033 15.8077192,11.1000627 L17.0711335,10.8894924 C17.6088366,10.799248 17.9998934,10.3367454 17.9998934,9.7915187 L17.9998934,8.2084813 C18.0074137,7.66325465 17.6163569,7.20075204 17.0786538,7.11050762 L17.0786538,7.11050762 Z M16.9577919,9.78678733 C16.9577919,9.83549321 16.9240724,9.87670588 16.8753665,9.8841991 L15.3017919,10.1464615 C15.1032217,10.180181 14.9458643,10.3262986 14.8971584,10.5173756 C14.7547873,11.0681267 14.5374842,11.5963982 14.2452489,12.0872036 C14.1440905,12.2595475 14.1515837,12.4731041 14.2677285,12.6379548 L15.1931403,13.9417738 C15.2193665,13.9792398 15.2156199,14.0354389 15.1819005,14.0691584 L14.0654118,15.1856471 C14.0391855,15.2118733 14.0129593,15.2156199 13.9942262,15.2156199 C13.9717466,15.2156199 13.9530136,15.2081267 13.9380271,15.1968869 L12.6379548,14.2714751 C12.4768507,14.1553303 12.2595475,14.1478371 12.0872036,14.2489955 C11.5963982,14.5412308 11.0681267,14.7585339 10.5173756,14.900905 C10.322552,14.9496109 10.1764344,15.1107149 10.1464615,15.3055385 L9.88045249,16.8791131 C9.87295928,16.927819 9.83174661,16.9615385 9.78304072,16.9615385 L8.20571946,16.9615385 C8.15701357,16.9615385 8.1158009,16.927819 8.10830769,16.8791131 L7.84604525,15.3055385 C7.81232579,15.1069683 7.66620814,14.9496109 7.47513122,14.900905 C6.93936652,14.7622805 6.42233484,14.548724 5.93902262,14.2714751 C5.86034389,14.2265158 5.77042534,14.2040362 5.68425339,14.2040362 C5.58309502,14.2040362 5.47819005,14.234009 5.3920181,14.2977014 L4.08070588,15.2306063 C4.06197285,15.2418462 4.04323982,15.2493394 4.02450679,15.2493394 C4.00952036,15.2493394 3.97954751,15.2455928 3.95332127,15.2193665 L2.83683258,14.1028778 C2.80311312,14.0691584 2.79936652,14.0167059 2.82559276,13.9754932 L3.74725792,12.682914 C3.86340271,12.5180633 3.87089593,12.3007602 3.76973756,12.1284163 C3.47750226,11.6413575 3.25270588,11.113086 3.11033484,10.5623348 C3.05788235,10.3712579 2.90052489,10.2251403 2.70570136,10.1914208 L1.12088688,9.92166516 C1.072181,9.91417195 1.03846154,9.87295928 1.03846154,9.82425339 L1.03846154,8.24693213 C1.03846154,8.19822624 1.072181,8.15701357 1.12088688,8.14952036 L2.68322172,7.88725792 C2.88179186,7.85353846 3.04289593,7.70742081 3.09160181,7.51259729 C3.23022624,6.96184615 3.44378281,6.42982805 3.73227149,5.93902262 C3.83342986,5.76667873 3.82219005,5.55312217 3.70604525,5.3920181 L2.77314027,4.08070588 C2.74691403,4.04323982 2.75066063,3.98704072 2.78438009,3.95332127 L3.90086878,2.83683258 C3.92709502,2.81060633 3.95332127,2.80685973 3.9720543,2.80685973 C3.99453394,2.80685973 4.01326697,2.81435294 4.02825339,2.82559276 L5.32083258,3.74725792 C5.48568326,3.86340271 5.70298643,3.87089593 5.87533032,3.76973756 C6.36238914,3.47750226 6.89066063,3.25270588 7.44141176,3.11033484 C7.63248869,3.05788235 7.77860633,2.90052489 7.81232579,2.70570136 L8.08208145,1.12088688 C8.08957466,1.072181 8.13078733,1.03846154 8.17949321,1.03846154 L9.75681448,1.03846154 C9.80552036,1.03846154 9.84673303,1.072181 9.85422624,1.12088688 L10.1164887,2.68322172 C10.1502081,2.88179186 10.2963258,3.04289593 10.4911493,3.09160181 C11.0568869,3.23397285 11.5963982,3.45502262 12.0984434,3.75100452 C12.2707873,3.8521629 12.4843439,3.84466968 12.6491946,3.72852489 L13.9417738,2.79936652 C13.9605068,2.7881267 13.9792398,2.78063348 13.9979729,2.78063348 C14.0129593,2.78063348 14.0429321,2.78438009 14.0691584,2.81060633 L15.1856471,3.92709502 C15.2193665,3.96081448 15.2231131,4.01326697 15.1968869,4.05447964 L14.2714751,5.35455204 C14.1553303,5.51565611 14.1478371,5.73295928 14.2489955,5.90530317 C14.5412308,6.3961086 14.7585339,6.92438009 14.900905,7.47513122 C14.9496109,7.66995475 15.1107149,7.8160724 15.3055385,7.84604525 L16.8791131,8.1120543 C16.927819,8.11954751 16.9615385,8.16076018 16.9615385,8.20946606 L16.9615385,9.78678733 L16.9577919,9.78678733 L16.9577919,9.78678733 Z" id="Shape"></path>
                <path d="M9,5.19230769 C6.89895003,5.19230769 5.19230769,6.89895003 5.19230769,9 C5.19230769,11.10105 6.89895003,12.8076923 9,12.8076923 C11.10105,12.8076923 12.8076923,11.10105 12.8076923,9 C12.8076923,6.89895003 11.10105,5.19230769 9,5.19230769 L9,5.19230769 Z M9,11.7692308 C7.47202339,11.7692308 6.23076923,10.5279766 6.23076923,9 C6.23076923,7.47202339 7.47202339,6.23076923 9,6.23076923 C10.5279766,6.23076923 11.7692308,7.47202339 11.7692308,9 C11.7692308,10.5279766 10.5279766,11.7692308 9,11.7692308 L9,11.7692308 Z" id="Shape"></path>
            </g>
        </g>
    </g>
</svg>